<?xml version="1.0" encoding="UTF-8" standalone="no"?>
<svg width="504px" height="236px" viewBox="0 0 504 236" version="1.1" xmlns="http://www.w3.org/2000/svg" xmlns:xlink="http://www.w3.org/1999/xlink" xmlns:sketch="http://www.bohemiancoding.com/sketch/ns">
    <title>Slice 1</title>
    <description>Created with Sketch (http://www.bohemiancoding.com/sketch)</description>
    <defs></defs>
    <g id="Page 1" stroke="none" stroke-width="1" fill="none" fill-rule="evenodd">
        <g id="Layer_1" transform="translate(-167.000000, -197.000000)">
            <g id="Group" transform="translate(167.000000, 197.000000)">
                <path d="M479.914,84.077 C468.08,84.077 462.378,88.094 454.561,98.019 L454.137,98.019 L454.137,86.191 L431.741,86.191 L431.741,235.775 L455.402,235.775 L455.402,190.136 C464.698,197.745 469.556,201.97 479.913,201.97 C494.699,201.97 504,190.984 504,170.279 L504,115.767 C504,95.062 494.7,84.077 479.914,84.077 L479.914,84.077 Z M480.333,164.152 C480.333,179.15 475.267,182.531 468.928,182.531 C464.282,182.531 460.052,180 455.404,176.617 L455.404,109.429 C460.052,106.048 464.282,103.515 468.928,103.515 C475.267,103.515 480.333,106.896 480.333,121.893 L480.333,164.152 L480.333,164.152 Z M480.333,164.152" id="Shape" fill="#7CB15E"></path>
                <path d="M26.195,47.314 L0,47.314 L0,199.855 L64.463,199.855 L64.463,177.041 L26.195,177.041 L26.195,47.314 Z M26.195,47.314" id="Shape" fill="#FFFFFF"></path>
                <path d="M110.514,84.077 C83.469,84.077 73.75,101.401 73.75,126.337 L73.75,159.717 C73.75,184.647 83.469,201.971 110.514,201.971 C136.925,201.971 146.852,185.489 147.276,161.409 L123.614,161.409 L123.614,163.942 C123.614,177.042 118.966,182.532 110.514,182.532 C102.061,182.532 97.413,177.042 97.413,163.942 L97.413,147.462 L147.276,147.462 L147.276,126.338 C147.276,101.401 137.557,84.077 110.514,84.077 L110.514,84.077 Z M123.614,128.026 L97.413,128.026 L97.413,122.106 C97.413,109.005 102.06,103.515 110.514,103.515 C118.966,103.515 123.614,109.005 123.614,122.106 L123.614,128.026 L123.614,128.026 Z M123.614,128.026" id="Shape" fill="#FFFFFF"></path>
                <path d="M404.147,0 L376.805,47.353 L390.972,47.353 L390.972,162.463 C390.972,173.66 386.536,179.151 377.03,179.151 C367.522,179.151 363.086,173.661 363.086,162.463 L363.086,47.314 L336.886,47.314 L336.886,161.408 C336.886,187.603 352.101,201.97 377.031,201.97 C401.965,201.97 417.175,187.603 417.175,161.408 L417.175,47.353 L431.49,47.353 L404.147,0 L404.147,0 Z M404.147,0" id="Shape" fill="#7CB153"></path>
                <path d="M295.359,95.912 C286.064,88.301 281.205,84.077 270.855,84.077 C256.062,84.077 246.766,95.062 246.766,115.767 L246.766,170.279 C246.766,190.984 256.062,201.97 270.855,201.97 C282.682,201.97 288.391,197.958 296.208,188.027 L296.626,188.027 L296.626,199.855 L319.022,199.855 L319.022,47.314 L295.359,47.314 L295.359,95.912 L295.359,95.912 Z M295.359,176.617 C290.712,180 286.489,182.531 281.84,182.531 C275.502,182.531 270.431,179.15 270.431,164.152 L270.431,121.893 C270.431,106.895 275.502,103.515 281.84,103.515 C286.488,103.515 290.711,106.048 295.359,109.429 L295.359,176.617 L295.359,176.617 Z M295.359,176.617" id="Shape" fill="#FFFFFF"></path>
                <path d="M211.497,84.077 C197.759,84.077 192.69,89.148 182.763,97.601 L182.763,86.191 L160.367,86.191 L160.367,199.856 L184.029,199.856 L184.029,110.697 C189.522,106.685 194.17,103.515 199.242,103.515 C204.311,103.515 207.691,106.048 207.691,111.757 L207.691,199.855 L231.354,199.855 L231.354,107.95 C231.353,93.16 223.96,84.077 211.497,84.077 L211.497,84.077 Z M211.497,84.077" id="Shape" fill="#FFFFFF"></path>
            </g>
        </g>
    </g>
</svg>